<svg width="214" height="124" viewBox="0 0 214 124" fill="none" xmlns="http://www.w3.org/2000/svg">
<path d="M13.4949 9.17676H58.8308V45.8765H9.17682V13.4948C9.17682 11.1111 11.1112 9.17676 13.4949 9.17676Z" fill="white"/>
<path d="M12.4135 48.5725H58.8308C60.3234 48.5725 61.5267 47.3616 61.5267 45.8766V4.85877C61.5267 2.17807 59.3486 0 56.6679 0H11.3321C5.08724 0 0 5.08724 0 11.3321V55.5865C0 62.433 5.56703 68 12.4135 68H58.8308C60.3234 68 61.5267 66.7891 61.5267 65.3041C61.5267 63.819 60.3158 62.6081 58.8308 62.6081H12.4135C8.54474 62.6081 5.39949 59.4629 5.39949 55.5941C5.39949 51.7254 8.54474 48.5801 12.4135 48.5801V48.5725ZM11.3321 5.39948H56.1272V43.173H12.4135C9.80894 43.173 7.39478 43.9803 5.39949 45.3587V11.3321C5.39949 8.05734 8.06496 5.39187 11.3321 5.39187V5.39948Z" fill="white"/>
<path d="M58.8231 58.2901H12.4135C10.9208 58.2901 9.71753 57.0792 9.71753 55.5941C9.71753 54.1091 10.9284 52.8982 12.4135 52.8982H58.8231C60.3158 52.8982 61.5191 54.1091 61.5191 55.5941C61.5191 57.0792 60.3082 58.2901 58.8231 58.2901Z" fill="white"/>
<path d="M46.958 19.9683H51.2684C51.8657 19.9683 52.3499 19.4841 52.3499 18.8868V14.5764C52.3499 13.9791 51.8657 13.495 51.2684 13.495H46.958C46.3607 13.495 45.8766 13.9791 45.8766 14.5764V18.8868C45.8766 19.4841 46.3607 19.9683 46.958 19.9683Z" fill="#2B3252"/>
<path d="M36.1667 19.9683H40.4771C41.0744 19.9683 41.5585 19.4841 41.5585 18.8868V14.5764C41.5585 13.9791 41.0744 13.495 40.4771 13.495H36.1667C35.5694 13.495 35.0852 13.9791 35.0852 14.5764V18.8868C35.0852 19.4841 35.5694 19.9683 36.1667 19.9683Z" fill="#2B3252"/>
<path d="M25.3677 19.9683H29.6782C30.2754 19.9683 30.7596 19.4841 30.7596 18.8868V14.5764C30.7596 13.9791 30.2754 13.495 29.6782 13.495H25.3677C24.7705 13.495 24.2863 13.9791 24.2863 14.5764V18.8868C24.2863 19.4841 24.7705 19.9683 25.3677 19.9683Z" fill="#2B3252"/>
<path d="M14.5763 19.9683H18.8868C19.484 19.9683 19.9682 19.4841 19.9682 18.8868V14.5764C19.9682 13.9791 19.484 13.495 18.8868 13.495H14.5763C13.9791 13.495 13.4949 13.9791 13.4949 14.5764V18.8868C13.4949 19.4841 13.9791 19.9683 14.5763 19.9683Z" fill="#2B3252"/>
<path d="M96.196 29.264C95.008 29.264 93.9007 29.0733 92.874 28.692C91.862 28.296 90.982 27.7387 90.234 27.02C89.486 26.3013 88.8993 25.458 88.474 24.49C88.0633 23.522 87.858 22.4587 87.858 21.3C87.858 20.1413 88.0633 19.078 88.474 18.11C88.8993 17.142 89.486 16.2987 90.234 15.58C90.9967 14.8613 91.884 14.3113 92.896 13.93C93.908 13.534 95.0153 13.336 96.218 13.336C97.5527 13.336 98.7553 13.5707 99.826 14.04C100.911 14.4947 101.821 15.1693 102.554 16.064L100.266 18.176C99.738 17.5747 99.1513 17.1273 98.506 16.834C97.8607 16.526 97.1567 16.372 96.394 16.372C95.6753 16.372 95.0153 16.4893 94.414 16.724C93.8127 16.9587 93.292 17.296 92.852 17.736C92.412 18.176 92.0673 18.6967 91.818 19.298C91.5833 19.8993 91.466 20.5667 91.466 21.3C91.466 22.0333 91.5833 22.7007 91.818 23.302C92.0673 23.9033 92.412 24.424 92.852 24.864C93.292 25.304 93.8127 25.6413 94.414 25.876C95.0153 26.1107 95.6753 26.228 96.394 26.228C97.1567 26.228 97.8607 26.0813 98.506 25.788C99.1513 25.48 99.738 25.018 100.266 24.402L102.554 26.514C101.821 27.4087 100.911 28.0907 99.826 28.56C98.7553 29.0293 97.5453 29.264 96.196 29.264ZM112.119 29.264C110.901 29.264 109.772 29.066 108.731 28.67C107.704 28.274 106.809 27.7167 106.046 26.998C105.299 26.2793 104.712 25.436 104.287 24.468C103.876 23.5 103.671 22.444 103.671 21.3C103.671 20.156 103.876 19.1 104.287 18.132C104.712 17.164 105.306 16.3207 106.069 15.602C106.831 14.8833 107.726 14.326 108.753 13.93C109.779 13.534 110.894 13.336 112.097 13.336C113.314 13.336 114.428 13.534 115.441 13.93C116.467 14.326 117.355 14.8833 118.103 15.602C118.865 16.3207 119.459 17.164 119.885 18.132C120.31 19.0853 120.523 20.1413 120.523 21.3C120.523 22.444 120.31 23.5073 119.885 24.49C119.459 25.458 118.865 26.3013 118.103 27.02C117.355 27.724 116.467 28.274 115.441 28.67C114.428 29.066 113.321 29.264 112.119 29.264ZM112.097 26.228C112.786 26.228 113.417 26.1107 113.989 25.876C114.575 25.6413 115.089 25.304 115.529 24.864C115.969 24.424 116.306 23.9033 116.541 23.302C116.79 22.7007 116.915 22.0333 116.915 21.3C116.915 20.5667 116.79 19.8993 116.541 19.298C116.306 18.6967 115.969 18.176 115.529 17.736C115.103 17.296 114.597 16.9587 114.011 16.724C113.424 16.4893 112.786 16.372 112.097 16.372C111.407 16.372 110.769 16.4893 110.183 16.724C109.611 16.9587 109.105 17.296 108.665 17.736C108.225 18.176 107.88 18.6967 107.631 19.298C107.396 19.8993 107.279 20.5667 107.279 21.3C107.279 22.0187 107.396 22.686 107.631 23.302C107.88 23.9033 108.217 24.424 108.643 24.864C109.083 25.304 109.596 25.6413 110.183 25.876C110.769 26.1107 111.407 26.228 112.097 26.228ZM123.201 29V13.6H126.149L132.705 24.468H131.143L137.589 13.6H140.515L140.559 29H137.215L137.193 18.726H137.809L132.661 27.372H131.055L125.797 18.726H126.545V29H123.201ZM144.213 29V13.6H150.879C152.257 13.6 153.445 13.8273 154.443 14.282C155.44 14.722 156.21 15.36 156.753 16.196C157.295 17.032 157.567 18.0293 157.567 19.188C157.567 20.332 157.295 21.322 156.753 22.158C156.21 22.994 155.44 23.6393 154.443 24.094C153.445 24.534 152.257 24.754 150.879 24.754H146.193L147.777 23.148V29H144.213ZM147.777 23.544L146.193 21.85H150.681C151.781 21.85 152.602 21.6153 153.145 21.146C153.687 20.6767 153.959 20.024 153.959 19.188C153.959 18.3373 153.687 17.6773 153.145 17.208C152.602 16.7387 151.781 16.504 150.681 16.504H146.193L147.777 14.81V23.544ZM157.314 29L164.178 13.6H167.698L174.584 29H170.844L165.212 15.404H166.62L160.966 29H157.314ZM160.746 25.7L161.692 22.994H169.612L170.58 25.7H160.746ZM176.181 29V13.6H179.129L188.215 24.688H186.785V13.6H190.305V29H187.379L178.271 17.912H179.701V29H176.181ZM197.777 29V22.708L198.591 24.864L191.815 13.6H195.599L200.791 22.246H198.613L203.827 13.6H207.325L200.549 24.864L201.341 22.708V29H197.777ZM88.826 56V40.6H91.774L100.86 51.688H99.43V40.6H102.95V56H100.024L90.916 44.912H92.346V56H88.826ZM104.57 56L111.434 40.6H114.954L121.84 56H118.1L112.468 42.404H113.876L108.222 56H104.57ZM108.002 52.7L108.948 49.994H116.868L117.836 52.7H108.002ZM123.437 56V40.6H126.385L132.941 51.468H131.379L137.825 40.6H140.751L140.795 56H137.451L137.429 45.726H138.045L132.897 54.372H131.291L126.033 45.726H126.781V56H123.437ZM147.727 46.804H155.141V49.576H147.727V46.804ZM147.991 53.14H156.373V56H144.449V40.6H156.087V43.46H147.991V53.14Z" fill="white"/>
<path opacity="0.7" d="M6.464 120.048C5.664 120.048 4.92267 119.904 4.24 119.616C3.55733 119.328 2.96 118.928 2.448 118.416C1.936 117.893 1.536 117.291 1.248 116.608C0.970667 115.925 0.832 115.189 0.832 114.4C0.832 113.611 0.976 112.875 1.264 112.192C1.552 111.509 1.952 110.912 2.464 110.4C2.976 109.877 3.57333 109.472 4.256 109.184C4.94933 108.896 5.696 108.752 6.496 108.752C7.296 108.752 8.03733 108.896 8.72 109.184C9.41333 109.461 10.0107 109.856 10.512 110.368C11.024 110.88 11.4187 111.477 11.696 112.16C11.984 112.832 12.128 113.568 12.128 114.368C12.128 115.168 11.984 115.915 11.696 116.608C11.408 117.291 11.0027 117.893 10.48 118.416C9.968 118.928 9.37067 119.328 8.688 119.616C8.00533 119.904 7.264 120.048 6.464 120.048ZM6.448 119.456C7.17333 119.456 7.84 119.328 8.448 119.072C9.056 118.805 9.58933 118.443 10.048 117.984C10.5173 117.525 10.88 116.987 11.136 116.368C11.392 115.739 11.52 115.072 11.52 114.368C11.52 113.653 11.392 112.992 11.136 112.384C10.8907 111.776 10.5387 111.243 10.08 110.784C9.632 110.325 9.09867 109.973 8.48 109.728C7.872 109.472 7.21067 109.344 6.496 109.344C5.77067 109.344 5.09867 109.472 4.48 109.728C3.86133 109.984 3.32267 110.347 2.864 110.816C2.416 111.275 2.064 111.808 1.808 112.416C1.552 113.024 1.424 113.685 1.424 114.4C1.424 115.104 1.552 115.765 1.808 116.384C2.064 116.992 2.416 117.531 2.864 118C3.32267 118.459 3.856 118.816 4.464 119.072C5.08267 119.328 5.744 119.456 6.448 119.456ZM6.608 117.728C5.968 117.728 5.39733 117.589 4.896 117.312C4.39467 117.024 4 116.629 3.712 116.128C3.424 115.627 3.28 115.051 3.28 114.4C3.28 113.749 3.424 113.173 3.712 112.672C4 112.171 4.39467 111.781 4.896 111.504C5.39733 111.216 5.968 111.072 6.608 111.072C7.152 111.072 7.64267 111.184 8.08 111.408C8.528 111.621 8.88533 111.92 9.152 112.304L8.464 112.816C8.24 112.507 7.968 112.277 7.648 112.128C7.328 111.979 6.976 111.904 6.592 111.904C6.13333 111.904 5.72267 112.011 5.36 112.224C5.008 112.427 4.72533 112.715 4.512 113.088C4.29867 113.461 4.192 113.899 4.192 114.4C4.192 114.901 4.29867 115.339 4.512 115.712C4.72533 116.085 5.008 116.379 5.36 116.592C5.72267 116.795 6.13333 116.896 6.592 116.896C6.976 116.896 7.328 116.821 7.648 116.672C7.968 116.523 8.24 116.293 8.464 115.984L9.152 116.48C8.88533 116.875 8.528 117.184 8.08 117.408C7.64267 117.621 7.152 117.728 6.608 117.728ZM17.749 120V119.184L22.405 114.624C22.8317 114.208 23.1517 113.845 23.365 113.536C23.5783 113.216 23.7223 112.917 23.797 112.64C23.8717 112.363 23.909 112.101 23.909 111.856C23.909 111.205 23.685 110.693 23.237 110.32C22.7997 109.947 22.149 109.76 21.285 109.76C20.6237 109.76 20.037 109.861 19.525 110.064C19.0237 110.267 18.5917 110.581 18.229 111.008L17.413 110.304C17.8503 109.792 18.4103 109.397 19.093 109.12C19.7757 108.843 20.5383 108.704 21.381 108.704C22.1383 108.704 22.7943 108.827 23.349 109.072C23.9037 109.307 24.3303 109.653 24.629 110.112C24.9383 110.571 25.093 111.109 25.093 111.728C25.093 112.091 25.0397 112.448 24.933 112.8C24.837 113.152 24.6557 113.525 24.389 113.92C24.133 114.304 23.7543 114.741 23.253 115.232L18.981 119.424L18.661 118.976H25.605V120H17.749ZM31.4835 120.096C30.6195 120.096 29.8515 119.872 29.1795 119.424C28.5075 118.965 27.9795 118.315 27.5955 117.472C27.2115 116.619 27.0195 115.595 27.0195 114.4C27.0195 113.205 27.2115 112.187 27.5955 111.344C27.9795 110.491 28.5075 109.84 29.1795 109.392C29.8515 108.933 30.6195 108.704 31.4835 108.704C32.3475 108.704 33.1155 108.933 33.7875 109.392C34.4595 109.84 34.9875 110.491 35.3715 111.344C35.7662 112.187 35.9635 113.205 35.9635 114.4C35.9635 115.595 35.7662 116.619 35.3715 117.472C34.9875 118.315 34.4595 118.965 33.7875 119.424C33.1155 119.872 32.3475 120.096 31.4835 120.096ZM31.4835 119.04C32.1448 119.04 32.7208 118.864 33.2115 118.512C33.7022 118.149 34.0862 117.627 34.3635 116.944C34.6408 116.251 34.7795 115.403 34.7795 114.4C34.7795 113.397 34.6408 112.555 34.3635 111.872C34.0862 111.179 33.7022 110.656 33.2115 110.304C32.7208 109.941 32.1448 109.76 31.4835 109.76C30.8435 109.76 30.2728 109.941 29.7715 110.304C29.2702 110.656 28.8808 111.179 28.6035 111.872C28.3262 112.555 28.1875 113.397 28.1875 114.4C28.1875 115.403 28.3262 116.251 28.6035 116.944C28.8808 117.627 29.2702 118.149 29.7715 118.512C30.2728 118.864 30.8435 119.04 31.4835 119.04ZM37.4053 120V119.184L42.0613 114.624C42.4879 114.208 42.8079 113.845 43.0213 113.536C43.2346 113.216 43.3786 112.917 43.4533 112.64C43.5279 112.363 43.5653 112.101 43.5653 111.856C43.5653 111.205 43.3413 110.693 42.8933 110.32C42.4559 109.947 41.8053 109.76 40.9413 109.76C40.2799 109.76 39.6933 109.861 39.1813 110.064C38.6799 110.267 38.2479 110.581 37.8853 111.008L37.0693 110.304C37.5066 109.792 38.0666 109.397 38.7493 109.12C39.4319 108.843 40.1946 108.704 41.0373 108.704C41.7946 108.704 42.4506 108.827 43.0053 109.072C43.5599 109.307 43.9866 109.653 44.2853 110.112C44.5946 110.571 44.7493 111.109 44.7493 111.728C44.7493 112.091 44.6959 112.448 44.5893 112.8C44.4933 113.152 44.3119 113.525 44.0453 113.92C43.7893 114.304 43.4106 114.741 42.9093 115.232L38.6373 119.424L38.3173 118.976H45.2613V120H37.4053ZM50.051 120.096C49.2403 120.096 48.4723 119.968 47.747 119.712C47.0323 119.445 46.4563 119.093 46.019 118.656L46.579 117.744C46.9417 118.117 47.427 118.427 48.035 118.672C48.6537 118.917 49.3257 119.04 50.051 119.04C50.979 119.04 51.6883 118.837 52.179 118.432C52.6803 118.027 52.931 117.483 52.931 116.8C52.931 116.117 52.6857 115.573 52.195 115.168C51.715 114.763 50.9523 114.56 49.907 114.56H49.107V113.712L52.563 109.376L52.723 109.824H46.483V108.8H53.683V109.616L50.227 113.952L49.667 113.584H50.099C51.443 113.584 52.4457 113.883 53.107 114.48C53.779 115.077 54.115 115.845 54.115 116.784C54.115 117.413 53.9657 117.979 53.667 118.48C53.3683 118.981 52.915 119.376 52.307 119.664C51.7097 119.952 50.9577 120.096 50.051 120.096ZM59.1258 120L64.2458 108.8H65.4138L70.5338 120H69.2858L64.5818 109.488H65.0618L60.3578 120H59.1258ZM61.1418 117.008L61.4938 116.048H68.0058L68.3578 117.008H61.1418ZM72.1465 120V108.128H73.2825V120H72.1465ZM76.4434 120V108.128H77.5794V120H76.4434ZM85.1678 120V108.8H89.3598C90.3091 108.8 91.1251 108.955 91.8078 109.264C92.4904 109.563 93.0131 110 93.3758 110.576C93.7491 111.141 93.9358 111.829 93.9358 112.64C93.9358 113.429 93.7491 114.112 93.3758 114.688C93.0131 115.253 92.4904 115.691 91.8078 116C91.1251 116.299 90.3091 116.448 89.3598 116.448H85.8238L86.3518 115.904V120H85.1678ZM92.8158 120L89.9358 115.936H91.2158L94.1118 120H92.8158ZM86.3518 116L85.8238 115.44H89.3278C90.4478 115.44 91.2958 115.195 91.8718 114.704C92.4584 114.213 92.7517 113.525 92.7517 112.64C92.7517 111.744 92.4584 111.051 91.8718 110.56C91.2958 110.069 90.4478 109.824 89.3278 109.824H85.8238L86.3518 109.264V116ZM96.4903 120V111.6H97.6263V120H96.4903ZM97.0663 109.744C96.8316 109.744 96.6343 109.664 96.4743 109.504C96.3143 109.344 96.2343 109.152 96.2343 108.928C96.2343 108.704 96.3143 108.517 96.4743 108.368C96.6343 108.208 96.8316 108.128 97.0663 108.128C97.3009 108.128 97.4983 108.203 97.6583 108.352C97.8183 108.501 97.8983 108.688 97.8983 108.912C97.8983 109.147 97.8183 109.344 97.6583 109.504C97.5089 109.664 97.3116 109.744 97.0663 109.744ZM104.371 123.184C103.603 123.184 102.867 123.072 102.163 122.848C101.459 122.624 100.888 122.304 100.451 121.888L101.027 121.024C101.422 121.376 101.907 121.653 102.483 121.856C103.07 122.069 103.688 122.176 104.339 122.176C105.406 122.176 106.19 121.925 106.691 121.424C107.192 120.933 107.443 120.165 107.443 119.12V117.024L107.603 115.584L107.491 114.144V111.6H108.579V118.976C108.579 120.427 108.222 121.488 107.507 122.16C106.803 122.843 105.758 123.184 104.371 123.184ZM104.163 119.68C103.363 119.68 102.643 119.509 102.003 119.168C101.363 118.816 100.856 118.331 100.483 117.712C100.12 117.093 99.9391 116.384 99.9391 115.584C99.9391 114.784 100.12 114.08 100.483 113.472C100.856 112.853 101.363 112.373 102.003 112.032C102.643 111.691 103.363 111.52 104.163 111.52C104.91 111.52 105.582 111.675 106.179 111.984C106.776 112.293 107.251 112.752 107.603 113.36C107.955 113.968 108.131 114.709 108.131 115.584C108.131 116.459 107.955 117.2 107.603 117.808C107.251 118.416 106.776 118.88 106.179 119.2C105.582 119.52 104.91 119.68 104.163 119.68ZM104.275 118.672C104.894 118.672 105.443 118.544 105.923 118.288C106.403 118.021 106.782 117.659 107.059 117.2C107.336 116.731 107.475 116.192 107.475 115.584C107.475 114.976 107.336 114.443 107.059 113.984C106.782 113.525 106.403 113.168 105.923 112.912C105.443 112.645 104.894 112.512 104.275 112.512C103.667 112.512 103.118 112.645 102.627 112.912C102.147 113.168 101.768 113.525 101.491 113.984C101.224 114.443 101.091 114.976 101.091 115.584C101.091 116.192 101.224 116.731 101.491 117.2C101.768 117.659 102.147 118.021 102.627 118.288C103.118 118.544 103.667 118.672 104.275 118.672ZM116.028 111.52C116.711 111.52 117.308 111.653 117.82 111.92C118.343 112.176 118.748 112.571 119.036 113.104C119.335 113.637 119.484 114.309 119.484 115.12V120H118.348V115.232C118.348 114.347 118.124 113.68 117.676 113.232C117.239 112.773 116.62 112.544 115.82 112.544C115.223 112.544 114.7 112.667 114.252 112.912C113.815 113.147 113.474 113.493 113.228 113.952C112.994 114.4 112.876 114.944 112.876 115.584V120H111.74V108.128H112.876V113.904L112.652 113.472C112.919 112.864 113.346 112.389 113.932 112.048C114.519 111.696 115.218 111.52 116.028 111.52ZM125.209 120.08C124.419 120.08 123.811 119.867 123.385 119.44C122.958 119.013 122.745 118.411 122.745 117.632V109.744H123.881V117.568C123.881 118.059 124.003 118.437 124.249 118.704C124.505 118.971 124.867 119.104 125.337 119.104C125.838 119.104 126.254 118.96 126.585 118.672L126.985 119.488C126.761 119.691 126.489 119.84 126.169 119.936C125.859 120.032 125.539 120.08 125.209 120.08ZM121.241 112.544V111.6H126.441V112.544H121.241ZM131.309 120.08C130.615 120.08 129.959 119.984 129.341 119.792C128.722 119.589 128.237 119.339 127.885 119.04L128.397 118.144C128.738 118.4 129.175 118.624 129.709 118.816C130.242 118.997 130.802 119.088 131.389 119.088C132.189 119.088 132.765 118.965 133.117 118.72C133.469 118.464 133.645 118.128 133.645 117.712C133.645 117.403 133.543 117.163 133.341 116.992C133.149 116.811 132.893 116.677 132.573 116.592C132.253 116.496 131.895 116.416 131.501 116.352C131.106 116.288 130.711 116.213 130.317 116.128C129.933 116.043 129.581 115.92 129.261 115.76C128.941 115.589 128.679 115.36 128.477 115.072C128.285 114.784 128.189 114.4 128.189 113.92C128.189 113.461 128.317 113.051 128.573 112.688C128.829 112.325 129.202 112.043 129.693 111.84C130.194 111.627 130.802 111.52 131.517 111.52C132.061 111.52 132.605 111.595 133.149 111.744C133.693 111.883 134.141 112.069 134.493 112.304L133.997 113.216C133.623 112.96 133.223 112.779 132.797 112.672C132.37 112.555 131.943 112.496 131.517 112.496C130.759 112.496 130.199 112.629 129.837 112.896C129.485 113.152 129.309 113.483 129.309 113.888C129.309 114.208 129.405 114.459 129.597 114.64C129.799 114.821 130.061 114.965 130.381 115.072C130.711 115.168 131.069 115.248 131.453 115.312C131.847 115.376 132.237 115.456 132.621 115.552C133.015 115.637 133.373 115.76 133.693 115.92C134.023 116.069 134.285 116.288 134.477 116.576C134.679 116.853 134.781 117.221 134.781 117.68C134.781 118.171 134.642 118.597 134.365 118.96C134.098 119.312 133.703 119.589 133.181 119.792C132.669 119.984 132.045 120.08 131.309 120.08ZM141.293 120V108.8H145.485C146.434 108.8 147.25 108.955 147.933 109.264C148.615 109.563 149.138 110 149.501 110.576C149.874 111.141 150.061 111.829 150.061 112.64C150.061 113.429 149.874 114.112 149.501 114.688C149.138 115.253 148.615 115.691 147.933 116C147.25 116.299 146.434 116.448 145.485 116.448H141.949L142.477 115.904V120H141.293ZM148.941 120L146.061 115.936H147.341L150.237 120H148.941ZM142.477 116L141.949 115.44H145.453C146.573 115.44 147.421 115.195 147.997 114.704C148.583 114.213 148.877 113.525 148.877 112.64C148.877 111.744 148.583 111.051 147.997 110.56C147.421 110.069 146.573 109.824 145.453 109.824H141.949L142.477 109.264V116ZM156.183 120.08C155.309 120.08 154.541 119.899 153.879 119.536C153.218 119.163 152.701 118.656 152.327 118.016C151.954 117.365 151.767 116.624 151.767 115.792C151.767 114.96 151.943 114.224 152.295 113.584C152.658 112.944 153.149 112.443 153.767 112.08C154.397 111.707 155.101 111.52 155.879 111.52C156.669 111.52 157.367 111.701 157.975 112.064C158.594 112.416 159.079 112.917 159.431 113.568C159.783 114.208 159.959 114.949 159.959 115.792C159.959 115.845 159.954 115.904 159.943 115.968C159.943 116.021 159.943 116.08 159.943 116.144H152.631V115.296H159.335L158.887 115.632C158.887 115.024 158.754 114.485 158.487 114.016C158.231 113.536 157.879 113.163 157.431 112.896C156.983 112.629 156.466 112.496 155.879 112.496C155.303 112.496 154.786 112.629 154.327 112.896C153.869 113.163 153.511 113.536 153.255 114.016C152.999 114.496 152.871 115.045 152.871 115.664V115.84C152.871 116.48 153.01 117.045 153.287 117.536C153.575 118.016 153.97 118.395 154.471 118.672C154.983 118.939 155.565 119.072 156.215 119.072C156.727 119.072 157.202 118.981 157.639 118.8C158.087 118.619 158.471 118.341 158.791 117.968L159.431 118.704C159.058 119.152 158.589 119.493 158.023 119.728C157.469 119.963 156.855 120.08 156.183 120.08ZM164.528 120.08C163.834 120.08 163.178 119.984 162.56 119.792C161.941 119.589 161.456 119.339 161.104 119.04L161.616 118.144C161.957 118.4 162.394 118.624 162.928 118.816C163.461 118.997 164.021 119.088 164.608 119.088C165.408 119.088 165.984 118.965 166.336 118.72C166.688 118.464 166.864 118.128 166.864 117.712C166.864 117.403 166.762 117.163 166.56 116.992C166.368 116.811 166.112 116.677 165.792 116.592C165.472 116.496 165.114 116.416 164.72 116.352C164.325 116.288 163.93 116.213 163.536 116.128C163.152 116.043 162.8 115.92 162.48 115.76C162.16 115.589 161.898 115.36 161.696 115.072C161.504 114.784 161.408 114.4 161.408 113.92C161.408 113.461 161.536 113.051 161.792 112.688C162.048 112.325 162.421 112.043 162.912 111.84C163.413 111.627 164.021 111.52 164.736 111.52C165.28 111.52 165.824 111.595 166.368 111.744C166.912 111.883 167.36 112.069 167.712 112.304L167.216 113.216C166.842 112.96 166.442 112.779 166.016 112.672C165.589 112.555 165.162 112.496 164.736 112.496C163.978 112.496 163.418 112.629 163.056 112.896C162.704 113.152 162.528 113.483 162.528 113.888C162.528 114.208 162.624 114.459 162.816 114.64C163.018 114.821 163.28 114.965 163.6 115.072C163.93 115.168 164.288 115.248 164.672 115.312C165.066 115.376 165.456 115.456 165.84 115.552C166.234 115.637 166.592 115.76 166.912 115.92C167.242 116.069 167.504 116.288 167.696 116.576C167.898 116.853 168 117.221 168 117.68C168 118.171 167.861 118.597 167.584 118.96C167.317 119.312 166.922 119.589 166.4 119.792C165.888 119.984 165.264 120.08 164.528 120.08ZM173.652 120.08C172.777 120.08 172.009 119.899 171.348 119.536C170.687 119.163 170.169 118.656 169.796 118.016C169.423 117.365 169.236 116.624 169.236 115.792C169.236 114.96 169.412 114.224 169.764 113.584C170.127 112.944 170.617 112.443 171.236 112.08C171.865 111.707 172.569 111.52 173.348 111.52C174.137 111.52 174.836 111.701 175.444 112.064C176.063 112.416 176.548 112.917 176.9 113.568C177.252 114.208 177.428 114.949 177.428 115.792C177.428 115.845 177.423 115.904 177.412 115.968C177.412 116.021 177.412 116.08 177.412 116.144H170.1V115.296H176.804L176.356 115.632C176.356 115.024 176.223 114.485 175.956 114.016C175.7 113.536 175.348 113.163 174.9 112.896C174.452 112.629 173.935 112.496 173.348 112.496C172.772 112.496 172.255 112.629 171.796 112.896C171.337 113.163 170.98 113.536 170.724 114.016C170.468 114.496 170.34 115.045 170.34 115.664V115.84C170.34 116.48 170.479 117.045 170.756 117.536C171.044 118.016 171.439 118.395 171.94 118.672C172.452 118.939 173.033 119.072 173.684 119.072C174.196 119.072 174.671 118.981 175.108 118.8C175.556 118.619 175.94 118.341 176.26 117.968L176.9 118.704C176.527 119.152 176.057 119.493 175.492 119.728C174.937 119.963 174.324 120.08 173.652 120.08ZM179.74 120V111.6H180.828V113.888L180.716 113.488C180.951 112.848 181.346 112.363 181.9 112.032C182.455 111.691 183.143 111.52 183.964 111.52V112.624C183.922 112.624 183.879 112.624 183.836 112.624C183.794 112.613 183.751 112.608 183.708 112.608C182.823 112.608 182.13 112.88 181.628 113.424C181.127 113.957 180.876 114.72 180.876 115.712V120H179.74ZM188.557 120L184.829 111.6H186.013L189.437 119.392H188.877L192.349 111.6H193.469L189.725 120H188.557ZM198.402 120.08C197.527 120.08 196.759 119.899 196.098 119.536C195.437 119.163 194.919 118.656 194.546 118.016C194.173 117.365 193.986 116.624 193.986 115.792C193.986 114.96 194.162 114.224 194.514 113.584C194.877 112.944 195.367 112.443 195.986 112.08C196.615 111.707 197.319 111.52 198.098 111.52C198.887 111.52 199.586 111.701 200.194 112.064C200.813 112.416 201.298 112.917 201.65 113.568C202.002 114.208 202.178 114.949 202.178 115.792C202.178 115.845 202.173 115.904 202.162 115.968C202.162 116.021 202.162 116.08 202.162 116.144H194.85V115.296H201.554L201.106 115.632C201.106 115.024 200.973 114.485 200.706 114.016C200.45 113.536 200.098 113.163 199.65 112.896C199.202 112.629 198.685 112.496 198.098 112.496C197.522 112.496 197.005 112.629 196.546 112.896C196.087 113.163 195.73 113.536 195.474 114.016C195.218 114.496 195.09 115.045 195.09 115.664V115.84C195.09 116.48 195.229 117.045 195.506 117.536C195.794 118.016 196.189 118.395 196.69 118.672C197.202 118.939 197.783 119.072 198.434 119.072C198.946 119.072 199.421 118.981 199.858 118.8C200.306 118.619 200.69 118.341 201.01 117.968L201.65 118.704C201.277 119.152 200.807 119.493 200.242 119.728C199.687 119.963 199.074 120.08 198.402 120.08ZM207.834 120.08C207.034 120.08 206.314 119.899 205.674 119.536C205.045 119.173 204.549 118.672 204.186 118.032C203.824 117.381 203.642 116.635 203.642 115.792C203.642 114.939 203.824 114.192 204.186 113.552C204.549 112.912 205.045 112.416 205.674 112.064C206.314 111.701 207.034 111.52 207.834 111.52C208.57 111.52 209.226 111.685 209.802 112.016C210.389 112.347 210.853 112.832 211.194 113.472C211.546 114.101 211.722 114.875 211.722 115.792C211.722 116.699 211.552 117.472 211.21 118.112C210.869 118.752 210.405 119.243 209.818 119.584C209.242 119.915 208.581 120.08 207.834 120.08ZM207.914 119.072C208.512 119.072 209.045 118.939 209.514 118.672C209.994 118.395 210.368 118.011 210.634 117.52C210.912 117.019 211.05 116.443 211.05 115.792C211.05 115.131 210.912 114.555 210.634 114.064C210.368 113.573 209.994 113.195 209.514 112.928C209.045 112.651 208.512 112.512 207.914 112.512C207.328 112.512 206.8 112.651 206.33 112.928C205.861 113.195 205.488 113.573 205.21 114.064C204.933 114.555 204.794 115.131 204.794 115.792C204.794 116.443 204.933 117.019 205.21 117.52C205.488 118.011 205.861 118.395 206.33 118.672C206.8 118.939 207.328 119.072 207.914 119.072ZM211.082 120V117.472L211.194 115.776L211.034 114.08V108.128H212.17V120H211.082Z" fill="white"/>
</svg>
